# xmcd
#
# Track frame offsets:
#        150
#        29940
#        53883
#        86045
#        99610
#        145588
#        164465
#        174883
#        201128
#
# Disc length: 2929 seconds
#
# Revision: 0
# Processed by: cddbd v1.5.1PL0 Copyright (c) Steve Scherf et al.
# Submitted via: ExactAudioCopy v0.95a5
#
DISCID=790b6f09
DTITLE=George Winston - WINTER INTO SPRING 20th Anniversary Edition
DYEAR=2002
DGENRE=Acoustic
TTITLE0=January Stars
TTITLE1=February Sea
TTITLE2=Ocean Waves (O Mar)
TTITLE3=Reflection
TTITLE4=Rain
TTITLE5=Blossom/Meadow
TTITLE6=The Venice Dreamer:Part one - Introduction
TTITLE7=The Venice Dreamer:Part two
TTITLE8=(Love Echoes in the) Pine Hills
EXTD=
EXTT0=
EXTT1=
EXTT2=
EXTT3=
EXTT4=
EXTT5=
EXTT6=
EXTT7=
EXTT8=
PLAYORDER=
